<?xml version="1.0" standalone="no"?>
<!DOCTYPE svg PUBLIC "-//W3C//DTD SVG 20010904//EN"
 "http://www.w3.org/TR/2001/REC-SVG-20010904/DTD/svg10.dtd">
<svg version="1.0" xmlns="http://www.w3.org/2000/svg"
 width="420.000000pt" height="420.000000pt" viewBox="0 0 420.000000 420.000000"
 preserveAspectRatio="xMidYMid meet">

<g transform="translate(0.000000,420.000000) scale(0.100000,-0.100000)"
fill="#000000" stroke="none">
<path d="M2014 2945 c-20 -8 -35 -24 -43 -45 -12 -35 -16 -374 -5 -429 13 -61
103 -87 148 -42 20 20 21 33 24 218 2 108 1 211 -3 229 -12 65 -63 94 -121 69z
m76 -54 c6 -12 10 -100 10 -217 0 -170 -2 -200 -17 -216 -22 -24 -49 -23 -67
4 -13 18 -16 56 -16 210 0 102 4 198 10 212 12 33 64 37 80 7z"/>
<path d="M1377 2338 c-46 -34 -34 -128 20 -149 17 -6 108 -9 240 -7 205 3 213
4 235 26 32 31 31 97 -1 123 -21 17 -42 19 -250 19 -166 0 -232 -3 -244 -12z
m446 -27 c37 -14 45 -50 17 -73 -20 -16 -44 -18 -221 -18 -186 0 -200 1 -219
20 -11 11 -20 25 -20 30 0 6 9 19 20 30 19 19 33 20 209 20 104 0 201 -4 214
-9z"/>
<path d="M2219 2331 c-32 -26 -33 -92 -1 -123 22 -22 29 -23 240 -26 236 -3
256 1 280 51 16 34 1 92 -28 107 -11 6 -114 10 -243 10 -206 0 -227 -2 -248
-19z m477 -35 c18 -26 18 -32 -6 -56 -19 -19 -33 -20 -223 -20 -189 0 -205 1
-221 19 -22 24 -13 59 17 71 12 5 111 8 220 7 184 -2 200 -3 213 -21z"/>
<path d="M2007 2092 c-42 -26 -49 -71 -45 -295 l3 -199 28 -24 c36 -31 78 -31
114 0 l28 24 3 182 c2 101 1 207 -3 237 -6 47 -11 57 -38 74 -39 23 -54 23
-90 1z m73 -42 c19 -19 20 -33 20 -218 0 -163 -3 -201 -16 -220 -20 -29 -50
-28 -69 2 -14 21 -16 55 -13 226 3 186 4 203 22 216 26 18 32 18 56 -6z"/>
</g>
</svg>
